<svg width="28" height="28" viewBox="0 0 28 28" fill="none" xmlns="http://www.w3.org/2000/svg">
<path fill-rule="evenodd" clip-rule="evenodd" d="M8.33141 0.3325C9.79766 0.265 10.2652 0.25 14.0002 0.25C17.7352 0.25 18.2027 0.26625 19.6677 0.3325C21.1327 0.39875 22.1327 0.6325 23.0077 0.97125C23.9239 1.3175 24.7552 1.85875 25.4427 2.55875C26.1427 3.245 26.6827 4.075 27.0277 4.9925C27.3677 5.8675 27.6002 6.8675 27.6677 8.33C27.7352 9.79875 27.7502 10.2662 27.7502 14C27.7502 17.735 27.7339 18.2025 27.6677 19.6688C27.6014 21.1313 27.3677 22.1313 27.0277 23.0063C26.6827 23.9239 26.1418 24.7552 25.4427 25.4425C24.7552 26.1425 23.9239 26.6825 23.0077 27.0275C22.1327 27.3675 21.1327 27.6 19.6702 27.6675C18.2027 27.735 17.7352 27.75 14.0002 27.75C10.2652 27.75 9.79766 27.7337 8.33141 27.6675C6.86891 27.6012 5.86891 27.3675 4.99391 27.0275C4.07631 26.6825 3.24494 26.1416 2.55766 25.4425C1.85814 24.7558 1.3168 23.9249 0.97141 23.0075C0.63266 22.1325 0.40016 21.1325 0.33266 19.67C0.26516 18.2013 0.25016 17.7337 0.25016 14C0.25016 10.265 0.26641 9.7975 0.33266 8.3325C0.39891 6.8675 0.63266 5.8675 0.97141 4.9925C1.31731 4.0751 1.85906 3.24414 2.55891 2.5575C3.24521 1.85813 4.07575 1.3168 4.99266 0.97125C5.86766 0.6325 6.86766 0.4 8.33016 0.3325H8.33141ZM19.5564 2.8075C18.1064 2.74125 17.6714 2.7275 14.0002 2.7275C10.3289 2.7275 9.89391 2.74125 8.44391 2.8075C7.10266 2.86875 6.37516 3.0925 5.89016 3.28125C5.24891 3.53125 4.79016 3.8275 4.30891 4.30875C3.85272 4.75256 3.50164 5.29285 3.28141 5.89C3.09266 6.375 2.86891 7.1025 2.80766 8.44375C2.74141 9.89375 2.72766 10.3287 2.72766 14C2.72766 17.6712 2.74141 18.1062 2.80766 19.5562C2.86891 20.8975 3.09266 21.625 3.28141 22.11C3.50141 22.7063 3.85266 23.2475 4.30891 23.6912C4.75266 24.1475 5.29391 24.4988 5.89016 24.7188C6.37516 24.9075 7.10266 25.1313 8.44391 25.1925C9.89391 25.2588 10.3277 25.2725 14.0002 25.2725C17.6727 25.2725 18.1064 25.2588 19.5564 25.1925C20.8977 25.1313 21.6252 24.9075 22.1102 24.7188C22.7514 24.4688 23.2102 24.1725 23.6914 23.6912C24.1477 23.2475 24.4989 22.7063 24.7189 22.11C24.9077 21.625 25.1314 20.8975 25.1927 19.5562C25.2589 18.1062 25.2727 17.6712 25.2727 14C25.2727 10.3287 25.2589 9.89375 25.1927 8.44375C25.1314 7.1025 24.9077 6.375 24.7189 5.89C24.4689 5.24875 24.1727 4.79 23.6914 4.30875C23.2476 3.85259 22.7073 3.50151 22.1102 3.28125C21.6252 3.0925 20.8977 2.86875 19.5564 2.8075ZM12.2439 18.2388C13.2247 18.647 14.3169 18.7021 15.3338 18.3947C16.3508 18.0872 17.2294 17.4361 17.8197 16.5528C18.4099 15.6695 18.6752 14.6086 18.5702 13.5514C18.4652 12.4942 17.9964 11.5062 17.2439 10.7562C16.7642 10.2768 16.1842 9.90977 15.5456 9.68143C14.907 9.4531 14.2257 9.3692 13.5508 9.43577C12.8759 9.50234 12.2241 9.71772 11.6424 10.0664C11.0607 10.4151 10.5636 10.8884 10.1868 11.4523C9.80999 12.0162 9.5629 12.6566 9.4633 13.3275C9.36371 13.9983 9.4141 14.6829 9.61084 15.3319C9.80757 15.9809 10.1458 16.5783 10.6011 17.0809C11.0564 17.5835 11.6174 17.979 12.2439 18.2388ZM9.00266 9.0025C9.65894 8.34622 10.4381 7.82563 11.2955 7.47045C12.153 7.11527 13.072 6.93247 14.0002 6.93247C14.9283 6.93247 15.8473 7.11527 16.7048 7.47045C17.5623 7.82563 18.3414 8.34622 18.9977 9.0025C19.6539 9.65878 20.1745 10.4379 20.5297 11.2954C20.8849 12.1528 21.0677 13.0719 21.0677 14C21.0677 14.9281 20.8849 15.8472 20.5297 16.7046C20.1745 17.5621 19.6539 18.3412 18.9977 18.9975C17.6722 20.3229 15.8746 21.0675 14.0002 21.0675C12.1257 21.0675 10.3281 20.3229 9.00266 18.9975C7.67724 17.6721 6.93263 15.8744 6.93263 14C6.93263 12.1256 7.67724 10.3279 9.00266 9.0025ZM22.6352 7.985C22.7978 7.83159 22.928 7.6471 23.018 7.44247C23.1081 7.23783 23.1562 7.01721 23.1594 6.79366C23.1627 6.57011 23.1211 6.34818 23.037 6.14101C22.953 5.93384 22.8282 5.74564 22.6701 5.58755C22.512 5.42946 22.3238 5.3047 22.1166 5.22065C21.9095 5.1366 21.6875 5.09497 21.464 5.09823C21.2404 5.10149 21.0198 5.14957 20.8152 5.23962C20.6106 5.32967 20.4261 5.45987 20.2727 5.6225C19.9743 5.93879 19.8109 6.3589 19.8173 6.79366C19.8236 7.22842 19.9992 7.6436 20.3066 7.95105C20.6141 8.25851 21.0292 8.43404 21.464 8.44037C21.8988 8.44671 22.3189 8.28336 22.6352 7.985Z" fill="white"/>
</svg>
