<svg width="26" height="26" viewBox="0 0 26 26" fill="none" xmlns="http://www.w3.org/2000/svg">
<path d="M19.25 14.4125V19.0337H16.5713V14.7212C16.5713 13.6387 16.1838 12.9 15.2137 12.9C14.4738 12.9 14.0325 13.3975 13.8387 13.88C13.7687 14.0525 13.75 14.2925 13.75 14.5325V19.0337H11.07C11.07 19.0337 11.1063 11.7312 11.07 10.975H13.75V12.1162L13.7325 12.1425H13.75V12.1175C14.1063 11.5675 14.7412 10.785 16.165 10.785C17.9275 10.785 19.25 11.9375 19.25 14.4125ZM8.26625 7.08875C7.35 7.08875 6.75 7.69125 6.75 8.48125C6.75 9.25625 7.3325 9.875 8.23125 9.875H8.24875C9.18375 9.875 9.765 9.255 9.765 8.48125C9.7475 7.69125 9.18375 7.08875 8.26625 7.08875ZM6.90875 19.0337H9.58875V10.975H6.90875V19.0337Z" fill="white"/>
<path d="M13 23C15.6522 23 18.1957 21.9464 20.0711 20.0711C21.9464 18.1957 23 15.6522 23 13C23 10.3478 21.9464 7.8043 20.0711 5.92893C18.1957 4.05357 15.6522 3 13 3C10.3478 3 7.8043 4.05357 5.92893 5.92893C4.05357 7.8043 3 10.3478 3 13C3 15.6522 4.05357 18.1957 5.92893 20.0711C7.8043 21.9464 10.3478 23 13 23ZM13 25.5C6.09625 25.5 0.5 19.9037 0.5 13C0.5 6.09625 6.09625 0.5 13 0.5C19.9037 0.5 25.5 6.09625 25.5 13C25.5 19.9037 19.9037 25.5 13 25.5Z" fill="white"/>
</svg>
